<?xml version="1.0" encoding="UTF-8"?>
<svg version="1.1" viewBox="0 0 1600 896" width="1280" height="1280" xmlns="http://www.w3.org/2000/svg">
<path transform="translate(885 13.7)" d="m0 0c1.14 0.06 1.14 0.06 2.31 0.12 42.5 2.38 83.6 12.2 124 26.2 0.97 0.34 1.94 0.68 2.93 1.02 18.9 6.62 36.6 14.4 54.1 24 0.84 0.46 1.69 0.92 2.55 1.4 25.1 13.8 49.1 30 70.6 49 1.37 1.17 2.77 2.31 4.19 3.43 7.69 6.1 14.6 12.8 21.5 19.8 1.92 1.94 3.85 3.87 5.78 5.8 6 6.02 12 12 17.4 18.6 0.72 0.85 1.43 1.69 2.16 2.56 1.84 2.24 3.67 4.49 5.49 6.76 0.94 1.17 1.88 2.34 2.83 3.5 16.2 20 30.3 41.6 42.5 64.2 0.49 0.9 0.99 1.8 1.49 2.73 19.8 36.4 33.7 74.9 42.5 115 0.18 0.8 0.36 1.59 0.54 2.4 2.6 11.9 4.22 23.8 5.65 35.9 0.08 0.71 0.17 1.42 0.26 2.16 1.92 16.3 2.76 32.5 2.74 48.9v2.51c-0.03 14.4-0.59 28.7-2.19 43.1-0.13 1.18-0.26 2.35-0.39 3.56-4.96 43.7-16.1 87.4-34.6 127-0.42 0.93-0.85 1.85-1.28 2.8-15 32.6-33.3 63.2-55.7 91.2-0.51 0.65-1.03 1.29-1.56 1.96-11.6 14.4-24.1 27.8-37.1 40.9-0.86 0.87-1.71 1.73-2.6 2.63-5.16 5.17-10.5 9.92-16.2 14.5-2.58 2.07-5.06 4.21-7.53 6.4-8.52 7.52-17.6 14.1-27 20.6-0.64 0.45-1.28 0.89-1.94 1.35-42.4 29.3-89.1 50-139 62.6-0.9 0.24-1.81 0.47-2.74 0.71-13.3 3.39-26.7 6.06-40.3 8.29-0.83 0.14-1.67 0.29-2.53 0.43-12.5 2.09-25.1 3.05-37.8 3.76-0.75 0.04-1.5 0.09-2.28 0.13-10.8 0.6-21.6 0.8-32.4 0.68-1.04-0.01-2.07-0.02-3.14-0.03-25.8-0.42-51.6-3.72-76.9-8.97-0.86-0.17-1.72-0.35-2.6-0.53-22.7-4.71-44.9-11.1-66.5-19.4-2.16-0.82-4.32-1.61-6.49-2.39-9.86-3.57-19.3-7.76-28.7-12.4-1.08-0.52-1.08-0.52-2.18-1.06-28.1-13.8-54.2-30.5-78.5-50.2-1.03-0.81-2.05-1.63-3.11-2.47-5.94-4.76-11.6-9.81-17.1-15-2.15-1.98-4.33-3.9-6.57-5.79-8.75-7.59-17.1-16-24.6-24.9-1.89-2.22-3.86-4.35-5.84-6.49-56-62.2-90.6-143-102-225-0.16-1.1-0.16-1.1-0.32-2.22-2.59-17.8-3.11-35.4-3.11-53.5 0-3.66-0.02-7.31-0.04-11-0.06-21.3 1.31-42.2 4.97-63.2 0.13-0.77 0.26-1.53 0.4-2.31 2.35-13.7 5.19-27.3 8.85-40.8 0.29-1.06 0.57-2.12 0.87-3.21 21.4-78.1 66.8-155 129-208 1.93-1.64 3.82-3.29 5.71-4.96 7.63-6.71 15.4-13 23.6-19l3.48-2.61c9.23-6.91 18.7-13.3 28.5-19.4 0.98-0.61 0.98-0.61 1.98-1.23 28-17.3 57.6-30.9 89-40.8 2.19-0.7 4.37-1.4 6.56-2.1 13.4-4.23 26.7-7.93 40.4-10.9 1.18-0.26 1.18-0.26 2.38-0.53 22.9-5.07 46.3-8.13 69.8-9.03 1.5-0.06 1.5-0.06 3.03-0.13 14.6-0.58 29.2-0.41 43.8 0.38z" fill="#F9FCFE"/>
<path transform="translate(885 13.7)" d="m0 0c1.14 0.06 1.14 0.06 2.31 0.12 42.5 2.38 83.6 12.2 124 26.2 0.97 0.34 1.94 0.68 2.93 1.02 18.9 6.62 36.6 14.4 54.1 24 0.84 0.46 1.69 0.92 2.55 1.4 25.1 13.8 49.1 30 70.6 49 1.37 1.17 2.77 2.31 4.19 3.43 7.69 6.1 14.6 12.8 21.5 19.8 1.92 1.94 3.85 3.87 5.78 5.8 6 6.02 12 12 17.4 18.6 0.72 0.85 1.43 1.69 2.16 2.56 1.84 2.24 3.67 4.49 5.49 6.76 0.94 1.17 1.88 2.34 2.83 3.5 16.2 20 30.3 41.6 42.5 64.2 0.49 0.9 0.99 1.8 1.49 2.73 19.8 36.4 33.7 74.9 42.5 115 0.18 0.8 0.36 1.59 0.54 2.4 2.6 11.9 4.22 23.8 5.65 35.9 0.08 0.71 0.17 1.42 0.26 2.16 1.92 16.3 2.76 32.5 2.74 48.9v2.51c-0.03 14.4-0.59 28.7-2.19 43.1-0.13 1.18-0.26 2.35-0.39 3.56-4.96 43.7-16.1 87.4-34.6 127-0.42 0.93-0.85 1.85-1.28 2.8-15 32.6-33.3 63.2-55.7 91.2-0.51 0.65-1.03 1.29-1.56 1.96-11.6 14.4-24.1 27.8-37.1 40.9-0.86 0.87-1.71 1.73-2.6 2.63-5.16 5.17-10.5 9.92-16.2 14.5-2.58 2.07-5.06 4.21-7.53 6.4-8.52 7.52-17.6 14.1-27 20.6-0.64 0.45-1.28 0.89-1.94 1.35-42.4 29.3-89.1 50-139 62.6-0.9 0.24-1.81 0.47-2.74 0.71-13.3 3.39-26.7 6.06-40.3 8.29-0.83 0.14-1.67 0.29-2.53 0.43-12.5 2.09-25.1 3.05-37.8 3.76-0.75 0.04-1.5 0.09-2.28 0.13-10.8 0.6-21.6 0.8-32.4 0.68-1.04-0.01-2.07-0.02-3.14-0.03-25.8-0.42-51.6-3.72-76.9-8.97-0.86-0.17-1.72-0.35-2.6-0.53-22.7-4.71-44.9-11.1-66.5-19.4-2.16-0.82-4.32-1.61-6.49-2.39-9.86-3.57-19.3-7.76-28.7-12.4-1.08-0.52-1.08-0.52-2.18-1.06-28.1-13.8-54.2-30.5-78.5-50.2-1.03-0.81-2.05-1.63-3.11-2.47-5.94-4.76-11.6-9.81-17.1-15-2.15-1.98-4.33-3.9-6.57-5.79-8.75-7.59-17.1-16-24.6-24.9-1.89-2.22-3.86-4.35-5.84-6.49-56-62.2-90.6-143-102-225-0.16-1.1-0.16-1.1-0.32-2.22-2.59-17.8-3.11-35.4-3.11-53.5 0-3.66-0.02-7.31-0.04-11-0.06-21.3 1.31-42.2 4.97-63.2 0.13-0.77 0.26-1.53 0.4-2.31 2.35-13.7 5.19-27.3 8.85-40.8 0.29-1.06 0.57-2.12 0.87-3.21 21.4-78.1 66.8-155 129-208 1.93-1.64 3.82-3.29 5.71-4.96 7.63-6.71 15.4-13 23.6-19l3.48-2.61c9.23-6.91 18.7-13.3 28.5-19.4 0.98-0.61 0.98-0.61 1.98-1.23 28-17.3 57.6-30.9 89-40.8 2.19-0.7 4.37-1.4 6.56-2.1 13.4-4.23 26.7-7.93 40.4-10.9 1.18-0.26 1.18-0.26 2.38-0.53 22.9-5.07 46.3-8.13 69.8-9.03 1.5-0.06 1.5-0.06 3.03-0.13 14.6-0.58 29.2-0.41 43.8 0.38zm-51.9 42.3c-1.71 0.18-3.43 0.32-5.15 0.43-1.02 0.07-2.03 0.15-3.07 0.22-1.62 0.11-1.62 0.11-3.28 0.23-8.23 0.61-16.4 1.39-24.6 2.62-0.79 0.12-1.58 0.24-2.39 0.36-3.63 0.58-7.18 1.27-10.7 2.18-3.24 0.82-6.38 1.42-9.68 1.9-4.74 0.76-9.17 1.88-13.7 3.34-3.12 0.94-6.27 1.58-9.48 2.2-2.21 0.5-2.21 0.5-4.91 2.52-2.09 0.54-4.2 1.01-6.31 1.44-4.68 1.03-8.47 2.26-12.7 4.56-2.22 0.81-4.46 1.53-6.71 2.26-6.19 2.01-11.9 4.46-17.7 7.46-2.52 1.25-5.07 2.36-7.66 3.45-3.56 1.53-7.05 3.19-10.6 4.83-0.74 0.35-1.48 0.69-2.24 1.04-3.85 1.81-7.5 3.74-11.1 5.96-2.3 1.09-4.64 2.03-7 3v2c-0.88 0.27-1.77 0.54-2.68 0.81-5.25 1.89-9.59 5.02-14.2 8.13-4.29 2.88-8.59 5.59-13.1 8.06v2c-0.72 0.25-1.44 0.49-2.18 0.75-3.13 1.39-5.33 3.11-7.94 5.32-4.56 3.83-4.56 3.83-7.88 4.93v2h-2v2c-0.71 0.23-1.43 0.47-2.17 0.71-3.36 1.54-5.47 3.49-8.14 6.04-3.21 3.01-6.35 5.84-9.94 8.38-3.55 2.56-6.17 5.52-8.97 8.87-1.8 2.03-3.69 3.71-5.78 5.44-3.69 3.11-6.4 6.57-9.27 10.4-2.14 2.64-4.55 4.62-7.18 6.75-2.36 2.11-3.83 4.73-5.55 7.38-2.6 3.06-5.31 6.02-8 9-2.96 3.28-2.96 3.28-4.56 7.25-0.22 0.87-0.22 0.87-0.44 1.75-0.99 0.33-1.98 0.66-3 1-1.03 1.98-2.03 3.99-3 6-1.33 1.67-2.66 3.34-4 5-1.15 1.76-2.27 3.53-3.37 5.31-2.14 3.42-4.33 6.7-6.81 9.88-2.35 3.06-4.07 6.1-5.7 9.58-1.33 2.66-2.84 5.18-4.37 7.73-14.6 24.9-25.2 52.4-33.6 79.9-0.86 2.73-1.77 5.41-2.75 8.1-1.62 4.74-2.43 9.65-3.29 14.6-0.58 3.31-1.24 6.52-2.08 9.78-1.23 4.79-1.89 9.64-2.57 14.5-0.25 1.78-0.5 3.56-0.75 5.33-0.11 0.78-0.22 1.56-0.33 2.36-0.36 1.93-0.36 1.93-1.36 3.93-0.3 2.39-0.54 4.77-0.75 7.17-0.07 0.73-0.13 1.46-0.2 2.21-2.31 26.3-2.87 52.2-0.73 78.6 0.05 0.74 0.11 1.48 0.17 2.24 0.75 9.18 2 18.1 3.82 27.2 0.69 3.59 1.19 7.16 1.63 10.8 0.79 5.89 2.33 11.3 4.19 16.9 0.74 2.47 1.2 4.66 1.43 7.21 0.43 3.61 1.29 6.32 2.63 9.65 2.7 6.78 4.68 13.8 6.75 20.8 1.16 3.51 2.61 6.82 4.06 10.2 1.32 3.6 2.53 7.23 3.75 10.9 1.4 4.05 2.97 7.49 5.25 11.1 1.29 2.6 2.48 5.24 3.69 7.88 6.3 13.5 13.5 26.4 21.3 39.1 0.37 0.6 0.74 1.2 1.12 1.81 4.8 7.77 9.96 15.1 15.6 22.3 1.82 2.32 3.59 4.65 5.33 7.02 5.94 7.92 12.3 15.4 19.1 22.7 2.43 2.62 4.8 5.27 7.07 8.02 2.65 3.15 5.64 5.78 8.79 8.42 3.44 3.01 6.59 6.33 9.78 9.6 6.09 6.23 12.3 11.9 19.2 17.2 1.67 1.35 3.34 2.71 5 4.07 4.85 3.87 9.87 7.45 15 10.9 0.74 0.51 1.48 1.01 2.24 1.53 4.86 3.26 9.78 6.42 14.7 9.54 2.22 1.41 4.41 2.85 6.6 4.31 0.92 0.6 0.92 0.6 1.85 1.22 1.19 0.79 2.37 1.58 3.55 2.38 3.96 2.61 7.48 3.93 12 5.02v2c2.65 1.21 5.31 2.42 7.96 3.62 1.91 0.87 3.81 1.73 5.71 2.61 1.18 0.53 1.18 0.53 2.39 1.08 0.72 0.33 1.43 0.66 2.17 0.99 1.76 0.82 1.76 0.82 3.77 0.7v2c0.84 0.26 0.84 0.26 1.69 0.52 3.82 1.21 7.46 2.47 11 4.36 4.81 2.52 9.92 4.2 15 5.97 2.8 0.98 5.53 2.05 8.27 3.15 4.13 1.46 8.29 2.8 12.5 4 2.63 0.75 5.13 1.58 7.69 2.5 4.69 1.61 9.4 2.32 14.3 2.98 2.5 0.52 2.5 0.52 4.5 2.52 2.18 0.42 4.37 0.74 6.56 1 15.5 2.02 15.5 2.02 17.4 4 2.4 0.22 4.78 0.38 7.19 0.5 4.68 0.26 9.2 0.67 13.8 1.5 6 0.79 11.8 1.08 17.9 0.84 2.13 0.16 2.13 0.16 5.13 2.16 2.45 0.3 2.45 0.3 5.22 0.23h3.23c1.73-0.02 1.73-0.02 3.49-0.04 1.19-0.01 2.37-0.01 3.6-0.02 8.93-0.08 17.8-0.31 26.8-0.6 1.17-0.04 2.35-0.08 3.57-0.12 1.1-0.05 2.21-0.09 3.35-0.13 1.46-0.06 1.46-0.06 2.94-0.11 2.99-0.22 5.87-0.7 8.82-1.21 1.72-0.17 3.44-0.33 5.15-0.46 1.42-0.12 1.42-0.12 2.86-0.24 1.95-0.16 3.9-0.31 5.85-0.46 5.32-0.45 10.1-1.2 15.1-2.84 5.69-1.34 11.4-2.19 17.2-2.93 5.12-0.71 9.08-1.97 13.8-4.07 3.1-0.59 6.2-1.05 9.33-1.47 2.88-0.39 2.88-0.39 5.67-2.53 3.3-0.89 6.6-1.66 9.93-2.41 4.39-1.03 8.07-2.44 12.1-4.59 1.28-0.52 2.57-1.03 3.88-1.5 0.67-0.24 1.35-0.49 2.04-0.74s1.37-0.5 2.08-0.76c1.4-0.52 2.79-1.04 4.19-1.56 0.61-0.23 1.22-0.46 1.86-0.69 8.72-3.33 17.2-7.28 25.5-11.5 2.51-1.26 5.02-2.51 7.53-3.75 10.4-5.19 20.3-11.1 29.9-17.5v-2c1.09-0.12 1.09-0.12 2.19-0.25 3.41-0.91 5.14-2.48 7.81-4.75 1.39-0.8 1.39-0.8 2.82-1.62 0.72-0.46 1.44-0.91 2.18-1.38v-2c0.83-0.14 0.83-0.14 1.68-0.28 2.94-0.91 5.01-2.38 7.51-4.15 0.88-0.62 1.76-1.24 2.67-1.88 2.23-1.51 2.23-1.51 3.14-3.69 0.85-0.49 1.69-0.99 2.56-1.5 0.81-0.49 1.61-0.99 2.44-1.5v-2c0.68-0.18 1.36-0.37 2.06-0.56 3.5-1.71 5.52-3.91 8.18-6.7 2.34-2.31 5.02-3.95 7.76-5.74 2.84-2.5 2.84-2.5 5-5v-2c0.56-0.22 1.12-0.45 1.69-0.69 4.56-2.58 7.72-6.77 11.1-10.7 3.25-3.71 6.68-6.92 10.5-10 1.75-1.5 1.75-1.5 2.58-3.49 1.5-2.94 3.74-4.81 6.08-7.12 1.73-2.08 3.41-4.17 5.06-6.31 0.47-0.6 0.94-1.2 1.42-1.82 3.66-4.72 7.29-9.47 10.9-14.2 0.48-0.64 0.97-1.28 1.47-1.95 2.9-3.85 5.52-7.8 8.04-11.9 1.29-2.05 2.72-3.94 4.24-5.83 2.69-3.51 4.25-6.83 5.87-10.9 0.54-0.86 1.07-1.73 1.63-2.62 1.44-2.5 1.97-4.54 2.37-7.38h2l1-6h3c0.33-0.89 0.65-1.78 0.99-2.7 0.44-1.17 0.87-2.34 1.33-3.55 0.42-1.16 0.85-2.32 1.3-3.51 1.22-2.86 2.46-4.84 4.38-7.24 1.07-2.32 2.06-4.62 3-7 0.32-0.8 0.64-1.6 0.98-2.43 0.68-1.71 1.36-3.43 2.05-5.14 1.27-3.17 2.62-6.29 3.97-9.43 2.77-6.74 5.2-13.5 7.25-20.5 0.72-2.4 1.5-4.76 2.31-7.13 0.96-2.84 1.8-5.66 2.5-8.57 0.94-3.81 0.94-3.81 1.94-6.56 0.93-3.01 1.46-5.82 1.94-8.94 0.64-4.1 1.47-8.01 2.62-12 1.18-4.09 1.89-7.99 2.23-12.2 0.32-3.09 0.99-6.08 1.68-9.11 2.83-12.8 3.8-25.8 3.55-38.9-0.11-5.84-0.11-5.84 0.98-8.02 0.1-1.81 0.13-3.63 0.14-5.45v-3.32c0-1.15-0.01-2.29-0.01-3.48 0-1.13 0.01-2.26 0.01-3.43v-3.33c-0.01-1.01-0.01-2.01-0.01-3.04-0.07-2.98-0.07-2.98-0.64-6-0.46-2.79-0.55-5.28-0.47-8.1 0.05-5.88-0.52-11.6-1.27-17.4-0.13-1.06-0.26-2.12-0.4-3.21-1.04-8.2-2.19-16.4-3.41-24.5-0.24-1.66-0.24-1.66-0.49-3.36-0.16-1.03-0.32-2.06-0.48-3.13-0.14-0.91-0.28-1.82-0.42-2.75-0.55-2.44-1.41-4.24-2.55-6.45-0.67-3.5-1.24-7-1.77-10.5-0.78-4.89-2.2-8.91-4.23-13.5-0.83-3.22-1.49-6.45-2.15-9.72-0.94-3.63-2.32-6.85-3.85-10.3-0.95-2.49-1.89-4.99-2.81-7.5-2.08-5.58-4.19-11.2-6.37-16.7-0.47-1.18-0.94-2.37-1.42-3.6-1.27-2.92-2.72-5.51-4.4-8.21-0.72-1.66-1.43-3.33-2.13-5-3.2-7.38-7.16-14.3-11.2-21.2-1.27-2.2-2.42-4.38-3.49-6.67-2.78-5.7-6.39-10.9-9.87-16.2-1.27-1.92-2.53-3.86-3.78-5.79-4.32-6.6-8.75-12.9-13.8-19-1.49-1.85-2.8-3.71-4.06-5.72-0.81-1.18-0.81-1.18-1.63-2.38h-2c-0.22-0.52-0.43-1.05-0.66-1.59-1.85-3.32-4.29-6.06-6.78-8.91-0.52-0.61-1.05-1.22-1.6-1.85-8.03-9.24-16.2-18.5-25.3-26.6-3.2-2.85-6.34-5.73-9.44-8.69-0.66-0.63-1.32-1.26-2-1.91-1.31-1.25-2.62-2.51-3.92-3.77-3.24-3.08-5.87-5.43-10.3-6.7v-2c-2.07-1.62-4.14-3.13-6.31-4.62-1.29-0.91-2.58-1.81-3.87-2.71-0.65-0.45-1.3-0.9-1.96-1.37-2.59-1.81-5.13-3.68-7.67-5.55-6.85-4.98-13.8-9.62-21.2-13.7-2.37-1.29-4.67-2.69-6.99-4.08-1.43-0.79-2.87-1.58-4.31-2.37-3.69-2.03-7.25-4.21-10.8-6.51-2.23-1.3-4.52-2.16-6.92-3.12-2.28-1.13-4.55-2.27-6.81-3.43-4.98-2.53-9.92-4.72-15.2-6.57-1.64-0.7-3.27-1.41-4.91-2.12-4.98-2.09-10-3.97-15.1-5.88-1.55-0.6-1.55-0.6-3.14-1.22-10.2-3.82-20.6-6.45-31.1-9.09-2.44-0.61-4.87-1.25-7.31-1.89-7.14-1.86-14.2-3.35-21.6-4.37-2.43-0.36-4.74-0.84-7.12-1.43-11-2.55-22.6-3.18-33.9-3.66-5.51-0.24-5.51-0.24-7.86-0.84-2.14-0.52-3.99-0.62-6.18-0.63-1.21 0-1.21 0-2.45-0.01-0.86 0.01-1.73 0.01-2.62 0.01h-2.71-5.67c-2.89 0.01-5.78 0-8.67 0h-5.51c-0.86 0-1.73 0-2.62-0.01-0.8 0.01-1.61 0.01-2.44 0.01-0.71 0-1.42 0-2.15 0.01-2.11 0.13-3.97 0.58-6.01 1.12z" fill="#000002"/>
<path transform="translate(892,282)" d="m0 0c2.17 0.54 4.36 1.01 6.56 1.44 19.3 3.96 38.7 11.6 54.4 23.6 1.03 0.68 2.06 1.36 3.12 2.06 8.67 5.84 16.5 12.1 23.3 20.1 1.27 1.46 2.61 2.86 3.99 4.24 2.48 2.48 4.91 4.99 7.31 7.56 0.76 0.81 1.53 1.62 2.32 2.46 2.14 2.8 3.07 5.22 3.99 8.6h2c1.37 1.97 2.7 3.98 4 6l2 2c8 14 8 14 8 19h2c0.27 0.98 0.27 0.98 0.55 1.98 1.11 3.86 2.15 7.45 4.01 11 1.69 3.51 2.29 6.81 2.91 10.6 0.42 2.36 0.42 2.36 1.51 4.25 1.06 2.19 1.48 3.99 1.84 6.39 0.18 1.21 0.18 1.21 0.37 2.44 0.19 1.26 0.19 1.26 0.37 2.54 0.13 0.82 0.25 1.64 0.38 2.49 0.25 1.64 0.49 3.29 0.73 4.94 0.29 2.02 0.6 4.04 0.91 6.06 0.73 6.02 0.56 12.1 0.54 18.1 0.01 1.21 0.01 2.43 0.02 3.68-0.02 18.2-0.02 18.2-2.14 22.4-0.24 1.32-0.44 2.64-0.61 3.96-1.28 9.13-2.75 17.5-6.39 26-0.51 1.35-1.01 2.71-1.5 4.06-0.24 0.64-0.49 1.28-0.74 1.94-0.53 1.39-1.05 2.79-1.55 4.19-4.27 11.3-10.2 23.6-18.2 32.8h-2c-0.1 0.56-0.2 1.12-0.31 1.7-2.17 7.22-8.02 12.9-13.7 17.6-2.1 1.83-3.82 3.77-5.6 5.91-2.8 3.31-5.67 5.53-9.38 7.81-0.84 0.87-0.84 0.87-1.69 1.75-1.31 1.25-1.31 1.25-4.31 1.25l-1 3c-1.78 1.39-1.78 1.39-3.94 2.69-0.71 0.43-1.42 0.87-2.15 1.32-1.91 0.99-1.91 0.99-3.91 0.99v2c-0.84 0.41-1.69 0.82-2.55 1.24-1.1 0.54-2.2 1.08-3.33 1.64-1.09 0.53-2.18 1.06-3.3 1.61-2.86 1.36-2.86 1.36-4.82 3.51-1.52 0.7-3.07 1.34-4.62 1.94-0.91 0.35-1.82 0.7-2.76 1.06-0.86 0.33-1.73 0.66-2.62 1-1.2 0.47-2.39 0.95-3.62 1.44-6.7 2.48-13.5 4.52-20.4 6.56-1.01 0.3-2.03 0.61-3.07 0.92-30 8.24-64.6 5.92-93.9-3.92-0.83-0.24-1.66-0.49-2.52-0.74-21.4-6.42-44.5-20.2-59.8-36.5-1.69-1.76-3.45-3.29-5.32-4.83-3.51-2.95-6.74-6.18-9.38-9.94v-2h-2c-8.22-10.1-15.5-21.2-21-33-0.41-0.76-0.81-1.52-1.23-2.3-3.87-7.27-6.29-14.9-8.77-22.7-0.8-2.33-1.61-4.65-2.42-6.97-0.76-2.66-1.16-5.3-1.58-8.03-0.11-0.67-0.23-1.34-0.34-2.03-1.83-10.9-2.99-21.6-3.47-32.7-0.08-1.61-0.08-1.61-0.16-3.25-0.21-5.83 0.15-11 1.46-16.7 0.79-3.6 1.09-7.23 1.45-10.9 0.66-6.18 1.8-11.6 4.06-17.4 0.35-1.24 0.7-2.48 1.06-3.75 0.83-2.86 1.82-5.5 2.94-8.25 0.3-0.77 0.59-1.53 0.89-2.32 3.48-8.96 7.74-17.2 12.8-25.4 1.48-2.41 1.48-2.41 3.04-5.7 1.31-2.56 1.31-2.56 2.69-3.92 1.95-1.97 3.38-4.1 4.93-6.39 7.82-11.3 7.82-11.3 11.7-13.2 0.29-0.64 0.58-1.28 0.88-1.94 1.12-2.06 1.12-2.06 3.02-2.99 2.31-1.18 3.29-2.28 4.85-4.32 4.25-5.17 9.3-8.77 15.2-11.8l1.5-1.5c1.69-1.69 3.37-2.43 5.5-3.5 0.45-0.47 0.91-0.95 1.38-1.44 2.25-2.16 4.81-3.21 7.62-4.56 0.73-0.45 1.47-0.9 2.23-1.37 3.32-1.95 6.77-3.58 10.3-5.19 0.65-0.31 1.3-0.61 1.97-0.92 23.8-11 80-27.2 104-11.5z" fill="#000002"/>
<path transform="translate(829,459)" d="m0 0c0.24 0.52 0.48 1.04 0.73 1.57 4.39 9.12 9.15 13 18.3 17.4 3.76 1.25 7.27 1.11 11.2 1.06 0.75 0 1.5-0.01 2.27-0.01 1.85-0.01 3.69-0.03 5.54-0.05 3.16 5.84 5.49 11.8 7.78 18.1 1.88 5.08 3.94 10 6.22 14.9 2.22 5 4.12 10.1 5.98 15.2 2.84 7.8 6.15 15.4 9.51 23 1.9 4.31 3.51 8.61 4.9 13.1 0.61 1.94 0.61 1.94 2.11 4.24 1.8 3.01 2.76 6.02 3.8 9.36 0.71 2.28 0.71 2.28 1.95 4.95 0.88 2.56 0.49 3.66-0.25 6.19-0.92 0.19-1.83 0.39-2.77 0.59-1.19 0.26-2.38 0.52-3.61 0.79-1.18 0.25-2.36 0.51-3.58 0.77-3.12 0.61-3.12 0.61-5.04 2.85-11.2 2.35-22.6 2.31-34 2.26-2.69-0.01-5.37 0-8.05 0.01-23.3 0.02-23.3 0.02-34-4.48-2.1-0.88-4.23-1.59-6.39-2.29-6.39-2.11-12.5-4.34-18.5-7.5-0.62-0.32-1.24-0.65-1.88-0.98-10.1-5.44-19.7-11.6-28.5-19-0.56-0.47-1.13-0.94-1.71-1.43-1.35-1.16-2.63-2.39-3.91-3.63v-2c-0.54-0.2-1.07-0.4-1.62-0.61-3.41-1.99-5.75-4.73-8.38-7.64-0.78-0.84-0.78-0.84-1.58-1.7-4.26-4.66-7.73-9.61-10.7-15.2-2.02-3.71-4.15-7.33-6.31-10.9-2.69-4.59-4.68-8.92-6.38-13.9-0.52-1.13-1.03-2.27-1.56-3.44-3.36-8.31-3.36-8.31-3.44-12.6 2.14-2.7 3.9-3.47 7.24-4.1 0.82-0.16 1.64-0.32 2.48-0.49 0.86-0.15 1.71-0.31 2.59-0.47 1.69-0.32 3.37-0.65 5.05-0.98 0.75-0.13 1.49-0.27 2.26-0.41 2.48-0.53 2.48-0.53 5.19-1.5 3.59-1.18 7.21-2.05 10.9-2.89 1.49-0.34 2.97-0.69 4.46-1.03 2.32-0.54 4.64-1.07 6.95-1.6 8.1-1.85 16-3.8 23.9-6.53 1.86-0.41 3.74-0.77 5.62-1.06 3.04-0.51 5.85-1.08 8.82-1.94 4.29-1.2 8.58-1.82 13-2.44 2.72-0.35 2.72-0.35 4.57-2.56 3.07-0.65 5.86-1 9-1z" fill="#F9FCFE"/>
<path transform="translate(860 303)" d="m0 0c1.91-0.02 1.91-0.02 3.86-0.04 10.8-0.01 21.2 0.62 31.4 4.23 2.04 0.6 4.09 1.21 6.13 1.81 9.36 2.87 18.2 6.69 26.9 11.2l4.5 2.25c1.16 0.57 2.31 1.15 3.5 1.75v2c0.89 0.25 1.78 0.49 2.69 0.75 3.5 1.32 5.46 2.87 8.31 5.25 0.82 0.64 1.63 1.28 2.48 1.93 23.4 18.7 42.8 44.4 49.5 74.1-3.09 1.45-5.82 2.16-9.19 2.5-3.82 0.11-3.82 0.11-5.81 2.5-1.85 0.47-1.85 0.47-4.06 0.78-0.8 0.12-1.59 0.24-2.41 0.36-1.69 0.24-3.37 0.48-5.05 0.71-0.8 0.12-1.59 0.24-2.41 0.37-0.74 0.1-1.47 0.2-2.22 0.31-2.08 0.36-2.08 0.36-3.85 2.47-2.61 0.56-2.61 0.56-5.75 1-4.3 0.66-8.14 1.54-12.2 3-9.71 2.58-9.71 2.58-14.6 3.46-2.45 0.46-2.45 0.46-4.68 1.51-4.64 1.73-9.54 2.18-14.4 2.88-0.78 0.12-1.56 0.24-2.37 0.37-0.71 0.1-1.42 0.2-2.16 0.31-2.03 0.37-2.03 0.37-3.8 2.47-5.4 1.6-11.4 2.76-17 2-2.43-2.06-2.43-2.06-5-5-1.38-1.27-2.77-2.52-4.19-3.75-0.67-0.6-1.34-1.19-2.04-1.8-1.71-1.52-1.71-1.52-3.77-2.45v-2c-0.59-0.01-1.18-0.01-1.79-0.01-2.67-0.04-5.35-0.11-8.02-0.18-0.93-0.01-1.86-0.01-2.81-0.02-2.56-0.08-4.89-0.21-7.38-0.79-2.04-2.42-2.04-2.42-3-5-0.74-1.09-0.74-1.09-1.5-2.19-1.36-2.55-2.1-4.68-2.87-7.44-1.63-5.75-4.08-11-6.63-16.4-1.89-4.21-3.58-8.48-5.15-12.8-0.71-1.84-1.48-3.65-2.26-5.45-1.65-3.82-3.09-7.71-4.52-11.6-2.16-5.81-4.47-11.5-7.07-17.1-3.14-7.21-6.14-14.5-8.81-21.9-0.38-1.05-0.38-1.05-0.77-2.11-0.5-2.42-0.29-3.71 0.58-6.01 5.45-2.52 11.1-3.87 16.9-5.13 0.75-0.17 1.49-0.34 2.26-0.51 10.2-2.23 20.1-2.54 30.5-2.55z" fill="#FAFDFF"/>
<path transform="translate(999,415)" d="m0 0c3 2 3 2 3.66 4.26 0.46 3.24 0.91 6.49 1.34 9.74 0.3 1.81 0.3 1.81 0.6 3.65 2.26 14.8 1.4 29.7-1.6 44.4-0.15 0.87-0.31 1.74-0.47 2.63-1.03 5.65-2.6 11-4.53 16.4-0.35 1.05-0.7 2.1-1.06 3.19-0.98 2.93-1.96 5.87-2.94 8.81h-2c-0.1 0.68-0.19 1.36-0.29 2.05-0.87 3.63-2.4 6.77-4.09 10.1-0.3 0.63-0.6 1.25-0.92 1.88-1.57 3.14-3.08 5.66-5.7 8-0.43 0.72-0.87 1.44-1.31 2.19-2.29 3.82-4.98 7.28-7.69 10.8-0.74 0.97-1.49 1.94-2.25 2.94-1.75 2.06-1.75 2.06-3.75 3.06-0.46 0.99-0.46 0.99-0.94 2-1.06 2-1.06 2-4.06 3-1.7 1.63-3.36 3.3-5 5-1.8 1.7-3.61 3.39-5.44 5.06-0.9 0.84-1.81 1.68-2.74 2.54-8.2 6.99-19.1 14.2-29.8 16.4v-2h-2c-0.35-1-0.35-1-0.7-2.02-1.74-4.91-3.58-9.7-5.8-14.4-2.26-4.83-3.95-9.73-5.51-14.8-1.03-2.85-2.4-5.17-3.99-7.73-1.06-2.66-2.05-5.3-3-8-3.86-12.1-3.86-12.1-9.5-23.3-1.85-3.31-2.72-6.64-3.75-10.3-0.93-3-2.3-5.64-3.75-8.42-0.8-2.05-1.56-4.11-2.3-6.18-0.69-1.93-0.69-1.93-1.95-4.01-1.08-2.62-0.57-4.13 0.25-6.81 1.74-1.77 1.74-1.77 3.88-3.38 3.98-3.25 5.48-5.79 7.12-10.6l1-1c0.14-3.15 0.25-6.3 0.25-9.45 0.08-2.01 0.08-2.01 0.75-5.55 3.37-2.94 7.2-3.74 11.5-4.75 0.66-0.16 1.32-0.32 2-0.48 1.55-0.37 3.11-0.74 4.67-1.1 5.32-1.26 10.6-2.54 15.9-3.82 1.92-0.47 3.85-0.93 5.77-1.39 5.75-1.38 11.4-2.8 17.1-4.46 1.54-0.37 3.08-0.73 4.62-1.06 0.77-0.17 1.53-0.34 2.31-0.51 1.58-0.33 3.17-0.63 4.76-0.93 2.4-0.47 2.4-0.47 4.98-1.41 3.59-1.18 7.21-2.11 10.9-3 1.44-0.35 2.87-0.71 4.3-1.06 2.25-0.55 4.49-1.1 6.73-1.65 2.18-0.53 4.36-1.07 6.53-1.6 0.68-0.17 1.36-0.33 2.05-0.5 3.19-0.6 3.19-0.6 5.84-2.28z" fill="#FAFDFF"/>
<path transform="translate(799,315)" d="m0 0h2c2.61 5.61 5.09 11.1 7 17 0.99 1.49 0.99 1.49 2 3 0.48 1.3 0.91 2.61 1.31 3.94 1.53 4.74 3.42 9.28 5.36 13.9 1.38 3.31 2.68 6.65 3.95 10 1.7 4.45 3.46 8.83 5.38 13.2 2.43 5.51 4.59 11.1 6.74 16.7 2.04 5.31 4.16 10.6 6.33 15.9 1.94 4.76 3.63 9.44 4.93 14.4-0.52 0.26-1.04 0.51-1.57 0.78-8.44 4.63-11.7 12.3-14.4 21.2-0.37 1.92-0.37 1.92-0.75 3.88-1.25 3.12-1.25 3.12-4.06 4.43-1.39 0.28-2.79 0.5-4.19 0.69-2.27 0.33-4.54 0.67-6.81 1-1.68 0.22-1.68 0.22-3.4 0.44-2.92 0.32-2.92 0.32-4.79 2.56-1.85 0.47-1.85 0.47-4.06 0.78-0.8 0.12-1.6 0.24-2.42 0.36-1.68 0.24-3.36 0.48-5.04 0.72-0.8 0.12-1.6 0.24-2.42 0.36-0.73 0.1-1.46 0.2-2.21 0.31-2.08 0.36-2.08 0.36-3.85 2.47-2.82 0.58-5.6 1.07-8.44 1.5-1.54 0.23-3.08 0.47-4.62 0.72-0.68 0.1-1.37 0.2-2.07 0.31-2.19 0.44-2.19 0.44-4.87 2.47-3.61 0.72-7.21 1.3-10.8 1.86-3.66 0.58-6.04 1.06-9.16 3.14-1.96 0.47-1.96 0.47-4.16 0.78-0.79 0.12-1.59 0.24-2.4 0.36-1.67 0.24-3.34 0.48-5.01 0.72-0.79 0.12-1.59 0.24-2.4 0.36-0.73 0.1-1.45 0.2-2.2 0.31-2.06 0.36-2.06 0.36-3.83 2.47-3.44 0.75-3.44 0.75-7 1-3-2-3-2-3.7-4.03-1.04-5.98-1.92-11.9-2.3-18-0.05-0.82-0.11-1.64-0.16-2.49-0.51-16 1.52-35.9 8.16-50.5 0.41-1.5 0.8-3 1.19-4.5 1.76-6.16 4.87-11.5 7.97-17.1 1.5-2.78 2.75-5.46 3.84-8.42h2c0.26-0.72 0.52-1.44 0.79-2.19 1.26-2.93 2.77-5.23 4.65-7.81 1.8-2.5 3.52-4.93 5.05-7.61 1.54-2.44 3.02-3.9 5.26-5.7 3.63-3.04 6.63-6.31 9.61-9.99 1.78-1.84 3.37-2.57 5.64-3.7 1.34-1.33 2.67-2.66 4-4 2.1-1.59 4.21-3.13 6.38-4.62 0.55-0.4 1.1-0.79 1.67-1.2 3.54-2.46 6.85-3.92 11-5.18 0.47-0.5 0.95-0.99 1.44-1.5 2.41-2.31 5.39-2.62 8.56-3.5l1-2z" fill="#FAFDFF"/>
<path transform="translate(1017,481)" d="m0 0c3.15 0.26 4.64 0.65 6.94 2.88 1.64 4.83 0.59 9.31-0.94 14.1-2.36 3.82-2.36 3.82-5.69 4.75-0.76 0.08-1.52 0.17-2.31 0.25-1.27-3.81-0.52-5.82 0.44-9.69 0.28-1.18 0.57-2.36 0.87-3.57 0.23-0.91 0.45-1.81 0.69-2.74h-3l1-4h2v-2z" fill="#000405"/>
<path transform="translate(878,594)" d="m0 0c0.5 0.99 0.5 0.99 1 2l3 2c-7.75 1.06-15.4 1.15-23.2 1.12-1.24 0.01-2.49 0.01-3.77 0.02-1.2 0-2.41-0.01-3.65-0.01h-3.28c-3.11-0.13-6.05-0.55-9.11-1.13 3.53-3.38 6.88-3.47 11.5-3.51 0.72-0.02 1.44-0.04 2.19-0.06 2.3-0.05 4.6-0.08 6.89-0.12 1.56-0.03 3.11-0.07 4.67-0.1 9.42-0.21 9.42-0.21 13.7-0.21z" fill="#000405"/>
<path transform="translate(823,841)" d="m0 0c1.6-0.05 3.21-0.09 4.81-0.12 0.9-0.03 1.79-0.05 2.71-0.08 2.48 0.2 2.48 0.2 5.48 2.2 1.93 0.27 1.93 0.27 4.01 0.2 0.76-0.01 1.52-0.02 2.3-0.02 0.78-0.02 1.57-0.04 2.38-0.06 1.19-0.01 1.19-0.01 2.41-0.02 1.97-0.03 3.93-0.06 5.9-0.1l1 3c-10.9 0.21-21.3 0.16-32-2l1-3z" fill="#000405"/>
<path transform="translate(884,842)" d="m0 0 1 2c2.53 0.66 2.53 0.66 5 1v1c-4.29 0.2-8.58 0.38-12.9 0.56-1.22 0.06-2.44 0.11-3.7 0.17-1.75 0.07-1.75 0.07-3.54 0.15-1.62 0.07-1.62 0.07-3.27 0.14-2.61-0.02-2.61-0.02-4.61-1.02l1-3c2.94-0.17 5.87-0.33 8.81-0.5 0.84-0.05 1.67-0.1 2.53-0.14 0.8-0.05 1.6-0.09 2.43-0.14 0.74-0.04 1.48-0.09 2.24-0.13 1.66-0.07 3.33-0.09 4.99-0.09z" fill="#010506"/>
<path transform="translate(473,337)" d="m0 0c3.01 0.39 4.4 1.26 7 3l-2 10-2-2c-2.58-0.17-2.58-0.17-5 0-0.05-1.46-0.09-2.92-0.12-4.38-0.04-1.21-0.04-1.21-0.08-2.46 0.2-2.16 0.2-2.16 2.2-4.16z" fill="#010506"/>
<path transform="translate(884,453)" d="m0 0 3 3 2-3v7c-0.99 0.33-1.98 0.66-3 1-0.47 0.54-0.95 1.07-1.44 1.62-0.51 0.46-1.03 0.91-1.56 1.38-2.19-0.31-2.19-0.31-4-1 0-2 0-2 2-4-0.32-2.11-0.32-2.11-1-4l4-2z" fill="#010506"/>
<path transform="translate(729 474)" d="m0 0c2.72 0.57 3.67 1.35 5.38 3.5-1.99 0.99-1.99 0.99-4 2v4l-8 1v-2c0.99-0.33 1.98-0.66 3-1-1.33-0.66-2.64-1.32-4-2 4.24-4.86 4.24-4.86 7.62-5.5z" fill="#000405"/>
<path transform="translate(466,372)" d="m0 0c3 1 3 1 3.81 2.62 0.27 3.4-0.76 6.17-1.81 9.38l-5 1c0.25-0.74 0.25-0.74 0.5-1.5 0.71-3.53 0.56-6.9 0.5-10.5l2-1z" fill="#010506"/>
<path transform="translate(935,835)" d="m0 0 2 3h-3v2c-9.41 2.3-9.41 2.3-14 2l-1-3c5.29-1.58 10.6-2.85 16-4z" fill="#000305"/>
<path transform="translate(785,835)" d="m0 0c2.46 0.83 4.66 1.85 7 3v2c-4.15 0.08-7.97 0.07-12-1l-1-1c-1.33-0.36-2.66-0.7-4-1 3.76-2.51 5.54-2.37 10-2z" fill="#000405"/>
<path transform="translate(482,313)" d="m0 0c3.74 1.45 3.74 1.45 4.88 3.88 0.15 2.59-0.55 3.92-1.88 6.12-2.16 0-3.92-0.45-6-1l2-1c-0.21-0.95-0.41-1.9-0.62-2.88-0.13-1.03-0.25-2.06-0.38-3.12l2-2z" fill="#010506"/>
<path transform="translate(828,443)" d="m0 0h2c0.05 1.62 0.09 3.25 0.12 4.88 0.03 0.9 0.05 1.8 0.08 2.74-0.2 2.38-0.2 2.38-2.2 4.38-2 0.75-2 0.75-4 1l-2-2c2-2 2-2 4-3 0.68-1.89 0.68-1.89 1.12-4.06 0.26-1.1 0.26-1.1 0.51-2.23 0.12-0.56 0.25-1.13 0.37-1.71z" fill="#000405"/>
<path transform="translate(916,430)" d="m0 0c-2.16 3.25-2.45 3.44-6 4.25-1.05 0.26-1.05 0.26-2.12 0.52-1.88 0.23-1.88 0.23-3.88-0.77 0.69-1.94 0.69-1.94 2-4 3.6-1.27 6.35-0.94 10 0z" fill="#000405"/>
<path transform="translate(816,455)" d="m0 0c-1.5 2-1.5 2-4 4-2.76 0.36-5.2 0.19-8 0 0.69-1.94 0.69-1.94 2-4 3.6-1.27 6.35-0.94 10 0z" fill="#000405"/>
<path transform="translate(786,460)" d="m0 0c3.5 0.31 3.5 0.31 7 1l1 2c-5.45 1.49-5.45 1.49-11 3 2-5 2-5 3-6z" fill="#000405"/>
<path transform="translate(1252,461)" d="m0 0h2v12c-0.99-0.33-1.98-0.66-3-1-0.03-1.46-0.05-2.92-0.06-4.38-0.01-0.81-0.03-1.62-0.04-2.46 0.1-2.16 0.1-2.16 1.1-4.16z" fill="#000405"/>
<path transform="translate(771,464)" d="m0 0c0.99 1.32 1.98 2.64 3 4-7.75 1-7.75 1-10 1l1-3c3.06-1.19 3.06-1.19 6-2z" fill="#000405"/>
<path transform="translate(820,841)" d="m0 0v2l-8 1-1-3c3.07-1.53 5.7-0.55 9 0z" fill="#000405"/>
<path transform="translate(952,419)" d="m0 0 2 4c-1.98 0.66-3.96 1.32-6 2l-2-4c3.75-2 3.75-2 6-2z" fill="#010506"/>
</svg>
